{"asset":{"generator":"Khronos glTF Spline I/O v0.0.1","version":"2.0"},"scenes":[{"nodes":[0]}],"nodes":[{"name":"","children":[1,2,7,12,17],"matrix":[0.01,0,0,0,0,0.01,0,0,0,0,0.01,0,0,0,0,1]},{"name":"","camera":0,"translation":[76.79872759349206,328.5163752840891,1192.8110782885965],"rotation":[-0.15673079319678246,-0.24721551984961002,-0.040557574929430816,0.9553402683469581]},{"name":"Icon Instance 2","matrix":[1,0,0,0,0,1,0,0,0,0,1,0,411.7,-20.728277855812877,2.961785526244057,1],"children":[3,6]},{"name":"Container","matrix":[1,0,0,0,0,1,0,0,0,0,1.0029951799348384,0,0,35.23357147686352,-12.314467565327504,1],"children":[4,5]},{"name":"icon-bg","matrix":[1,0,0,0,0,1,0,0,0,0,1,0,0,0,-37.60626353207044,1],"mesh":0},{"name":"music","matrix":[1,0,0,0,0,1,0,0,0,0,1,0,-46.03249354243337,64.21966677071029,23.606263532070443,1],"mesh":1},{"name":"Text","matrix":[1,0,0,0,0,1,0,0,0,0,1,0,-13.351135205031028,-161.4932557255478,-1.961785526244057,1],"mesh":2},{"name":"Icon Instance","matrix":[1,0,0,0,0,1,0,0,0,0,1,0,11.699999999999989,-20.728277855812877,2.961785526244057,1],"children":[8,11]},{"name":"Container","matrix":[1,0,0,0,0,1,0,0,0,0,1.0029951799348384,0,0,35.23357147686352,-12.314467565327504,1],"children":[9,10]},{"name":"icon-bg","matrix":[1,0,0,0,0,1,0,0,0,0,1,0,0,0,-37.60626353207044,1],"mesh":3},{"name":"music","matrix":[1,0,0,0,0,1,0,0,0,0,1,0,-46.03249354243337,64.21966677071029,23.606263532070443,1],"mesh":4},{"name":"Text","matrix":[1,0,0,0,0,1,0,0,0,0,1,0,-13.351135205031028,-161.4932557255478,-1.961785526244057,1],"mesh":5},{"name":"Icon","matrix":[1,0,0,0,0,1,0,0,0,0,1,0,-388.3025049097085,-20.728277855812877,2.961785526244057,1],"children":[13,16]},{"name":"Container","matrix":[1,0,0,0,0,1,0,0,0,0,1.0029951799348384,0,0,35.23357147686352,-12.314467565327504,1],"children":[14,15]},{"name":"icon-bg","matrix":[1,0,0,0,0,1,0,0,0,0,1,0,0,0,-37.60626353207044,1],"mesh":6},{"name":"music","matrix":[1,0,0,0,0,1,0,0,0,0,1,0,-46.03249354243337,64.21966677071029,23.606263532070443,1],"mesh":7},{"name":"Text","matrix":[1,0,0,0,0,1,0,0,0,0,1,0,-13.351135205031028,-161.4932557255478,-1.961785526244057,1],"mesh":8},{"name":"Directional Light","translation":[377.95470510849344,317.1210632214754,819.108839042211],"rotation":[-0.24266863213952633,0.11316296415722692,-0.4072009137539968,0.873208734700124],"extensions":{"KHR_lights_punctual":{"light":0}}}],"cameras":[{"type":"orthographic","orthographic":{"xmag":1879,"ymag":939,"zfar":100000,"znear":-100000}}],"meshes":[{"primitives":[{"attributes":{"POSITION":1,"NORMAL":2,"TEXCOORD_0":3},"indices":0}]},{"primitives":[{"attributes":{"POSITION":5,"NORMAL":6,"TEXCOORD_0":7},"indices":4}]},{"primitives":[{"attributes":{"POSITION":9,"NORMAL":10,"TEXCOORD_0":11},"indices":8}]},{"primitives":[{"attributes":{"POSITION":13,"NORMAL":14,"TEXCOORD_0":15},"indices":12}]},{"primitives":[{"attributes":{"POSITION":17,"NORMAL":18,"TEXCOORD_0":19},"indices":16}]},{"primitives":[{"attributes":{"POSITION":21,"NORMAL":22,"TEXCOORD_0":23},"indices":20}]},{"primitives":[{"attributes":{"POSITION":25,"NORMAL":26,"TEXCOORD_0":27},"indices":24}]},{"primitives":[{"attributes":{"POSITION":29,"NORMAL":30,"TEXCOORD_0":31},"indices":28}]},{"primitives":[{"attributes":{"POSITION":33,"NORMAL":34,"TEXCOORD_0":35},"indices":32}]}],"buffers":[{"uri":"data:application/octet-stream;base64,","byteLength":228240},{"uri":"data:application/octet-stream;base64,","byteLength":122160},{"uri":"data:application/octet-stream;base64,","byteLength":35220},{"uri":"data:application/octet-stream;base64,","byteLength":188880},{"uri":"data:application/octet-stream;base64,","byteLength":122160},{"uri":"data:application/octet-stream;base64,","byteLength":27632},{"uri":"data:application/octet-stream;base64,","byteLength":70800},{"uri":"data:application/octet-stream;base64,","byteLength":122160},{"uri":"data:application/octet-stream;base64,","byteLength":27632}],"bufferViews":[{"buffer":0,"byteOffset":0,"byteLength":39312,"target":34963},{"buffer":0,"byteOffset":39312,"byteLength":62976,"target":34962},{"buffer":0,"byteOffset":102288,"byteLength":62976,"target":34962},{"buffer":0,"byteOffset":165264,"byteLength":62976,"target":34962},{"buffer":1,"byteOffset":0,"byteLength":19248,"target":34963},{"buffer":1,"byteOffset":19248,"byteLength":34304,"target":34962},{"buffer":1,"byteOffset":53552,"byteLength":34304,"target":34962},{"buffer":1,"byteOffset":87856,"byteLength":34304,"target":34962},{"buffer":2,"byteOffset":0,"byteLength":5490,"target":34963},{"buffer":2,"byteOffset":5492,"byteLength":11148,"target":34962},{"buffer":2,"byteOffset":16640,"byteLength":11148,"target":34962},{"buffer":2,"byteOffset":27788,"byteLength":7432,"target":34962},{"buffer":3,"byteOffset":0,"byteLength":31440,"target":34963},{"buffer":3,"byteOffset":31440,"byteLength":52480,"target":34962},{"buffer":3,"byteOffset":83920,"byteLength":52480,"target":34962},{"buffer":3,"byteOffset":136400,"byteLength":52480,"target":34962},{"buffer":4,"byteOffset":0,"byteLength":19248,"target":34963},{"buffer":4,"byteOffset":19248,"byteLength":34304,"target":34962},{"buffer":4,"byteOffset":53552,"byteLength":34304,"target":34962},{"buffer":4,"byteOffset":87856,"byteLength":34304,"target":34962},{"buffer":5,"byteOffset":0,"byteLength":4302,"target":34963},{"buffer":5,"byteOffset":4304,"byteLength":8748,"target":34962},{"buffer":5,"byteOffset":13052,"byteLength":8748,"target":34962},{"buffer":5,"byteOffset":21800,"byteLength":5832,"target":34962},{"buffer":6,"byteOffset":0,"byteLength":7824,"target":34963},{"buffer":6,"byteOffset":7824,"byteLength":20992,"target":34962},{"buffer":6,"byteOffset":28816,"byteLength":20992,"target":34962},{"buffer":6,"byteOffset":49808,"byteLength":20992,"target":34962},{"buffer":7,"byteOffset":0,"byteLength":19248,"target":34963},{"buffer":7,"byteOffset":19248,"byteLength":34304,"target":34962},{"buffer":7,"byteOffset":53552,"byteLength":34304,"target":34962},{"buffer":7,"byteOffset":87856,"byteLength":34304,"target":34962},{"buffer":8,"byteOffset":0,"byteLength":4302,"target":34963},{"buffer":8,"byteOffset":4304,"byteLength":8748,"target":34962},{"buffer":8,"byteOffset":13052,"byteLength":8748,"target":34962},{"buffer":8,"byteOffset":21800,"byteLength":5832,"target":34962}],"accessors":[{"bufferView":0,"byteOffset":0,"componentType":5125,"count":9828,"type":"SCALAR","min":[0],"max":[1967]},{"bufferView":1,"byteOffset":0,"componentType":5126,"count":1968,"type":"VEC3","min":[-142.16127014160156,-142.16127014160156,0],"max":[142.16127014160156,142.16127014160156,57.982723236083984]},{"bufferView":2,"byteOffset":0,"componentType":5126,"count":1968,"type":"VEC3","min":[-1,-1,-1],"max":[1,1,1]},{"bufferView":3,"byteOffset":0,"componentType":5126,"count":1968,"type":"VEC2","min":[0,0],"max":[1,1]},{"bufferView":4,"byteOffset":0,"componentType":5125,"count":4812,"type":"SCALAR","min":[0],"max":[1071]},{"bufferView":5,"byteOffset":0,"componentType":5126,"count":1072,"type":"VEC3","min":[-38.783470153808594,-135.35888671875,0],"max":[105.88526916503906,20.949626922607422,14]},{"bufferView":6,"byteOffset":0,"componentType":5126,"count":1072,"type":"VEC3","min":[-1,-0.9991238713264465,-1],"max":[1,0.9999955296516418,1]},{"bufferView":7,"byteOffset":0,"componentType":5126,"count":1072,"type":"VEC2","min":[0,0],"max":[1,1]},{"bufferView":8,"byteOffset":0,"componentType":5123,"count":2745,"type":"SCALAR","min":[0],"max":[928]},{"bufferView":9,"byteOffset":0,"componentType":5126,"count":929,"type":"VEC3","min":[-63.9638671875,-10.418974876403809,0],"max":[66.28124237060547,30.042940139770508,0]},{"bufferView":10,"byteOffset":0,"componentType":5126,"count":929,"type":"VEC3","min":[0,0,1],"max":[0,0,1]},{"bufferView":11,"byteOffset":0,"componentType":5126,"count":929,"type":"VEC2","min":[0,0],"max":[1,1]},{"bufferView":12,"byteOffset":0,"componentType":5125,"count":7860,"type":"SCALAR","min":[0],"max":[1639]},{"bufferView":13,"byteOffset":0,"componentType":5126,"count":1640,"type":"VEC3","min":[-142.16127014160156,-142.16127014160156,0],"max":[142.16127014160156,142.16127014160156,57.982723236083984]},{"bufferView":14,"byteOffset":0,"componentType":5126,"count":1640,"type":"VEC3","min":[-1,-1,-1],"max":[1,1,1]},{"bufferView":15,"byteOffset":0,"componentType":5126,"count":1640,"type":"VEC2","min":[0,0],"max":[1,1]},{"bufferView":16,"byteOffset":0,"componentType":5125,"count":4812,"type":"SCALAR","min":[0],"max":[1071]},{"bufferView":17,"byteOffset":0,"componentType":5126,"count":1072,"type":"VEC3","min":[-38.783470153808594,-135.35888671875,0],"max":[105.88526916503906,20.949626922607422,14]},{"bufferView":18,"byteOffset":0,"componentType":5126,"count":1072,"type":"VEC3","min":[-1,-0.9991238713264465,-1],"max":[1,0.9999955296516418,1]},{"bufferView":19,"byteOffset":0,"componentType":5126,"count":1072,"type":"VEC2","min":[0,0],"max":[1,1]},{"bufferView":20,"byteOffset":0,"componentType":5123,"count":2151,"type":"SCALAR","min":[0],"max":[728]},{"bufferView":21,"byteOffset":0,"componentType":5126,"count":729,"type":"VEC3","min":[-53.361328125,-1.8672170639038086,0],"max":[55.43260955810547,28.812471389770508,0]},{"bufferView":22,"byteOffset":0,"componentType":5126,"count":729,"type":"VEC3","min":[0,0,1],"max":[0,0,1]},{"bufferView":23,"byteOffset":0,"componentType":5126,"count":729,"type":"VEC2","min":[0,0],"max":[1,1]},{"bufferView":24,"byteOffset":0,"componentType":5125,"count":1956,"type":"SCALAR","min":[0],"max":[655]},{"bufferView":25,"byteOffset":0,"componentType":5126,"count":656,"type":"VEC3","min":[-142.16127014160156,-142.16127014160156,0],"max":[142.16127014160156,142.16127014160156,57.982723236083984]},{"bufferView":26,"byteOffset":0,"componentType":5126,"count":656,"type":"VEC3","min":[-1,-1,-1],"max":[1,1,1]},{"bufferView":27,"byteOffset":0,"componentType":5126,"count":656,"type":"VEC2","min":[0,0],"max":[1,1]},{"bufferView":28,"byteOffset":0,"componentType":5125,"count":4812,"type":"SCALAR","min":[0],"max":[1071]},{"bufferView":29,"byteOffset":0,"componentType":5126,"count":1072,"type":"VEC3","min":[-38.783470153808594,-135.35888671875,0],"max":[105.88526916503906,20.949626922607422,14]},{"bufferView":30,"byteOffset":0,"componentType":5126,"count":1072,"type":"VEC3","min":[-1,-0.9991238713264465,-1],"max":[1,0.9999955296516418,1]},{"bufferView":31,"byteOffset":0,"componentType":5126,"count":1072,"type":"VEC2","min":[0,0],"max":[1,1]},{"bufferView":32,"byteOffset":0,"componentType":5123,"count":2151,"type":"SCALAR","min":[0],"max":[728]},{"bufferView":33,"byteOffset":0,"componentType":5126,"count":729,"type":"VEC3","min":[-53.361328125,-1.8672170639038086,0],"max":[55.43260955810547,28.812471389770508,0]},{"bufferView":34,"byteOffset":0,"componentType":5126,"count":729,"type":"VEC3","min":[0,0,1],"max":[0,0,1]},{"bufferView":35,"byteOffset":0,"componentType":5126,"count":729,"type":"VEC2","min":[0,0],"max":[1,1]}],"extensions":{"KHR_lights_punctual":{"lights":[{"type":"directional","name":"Directional Light","color":[1,1,1],"intensity":0.7}]}},"extensionsUsed":["KHR_lights_punctual"]}